<svg width="40" height="40" viewBox="0 0 40 40" fill="none" xmlns="http://www.w3.org/2000/svg">
<mask id="path-1-inside-1_86_139" fill="white">
<path d="M0 20C0 8.95431 8.95431 0 20 0C31.0457 0 40 8.95431 40 20C40 31.0457 31.0457 40 20 40C8.95431 40 0 31.0457 0 20Z"/>
</mask>
<path d="M20 40V39C9.50659 39 1 30.4934 1 20H0H-1C-1 31.598 8.40202 41 20 41V40ZM40 20H39C39 30.4934 30.4934 39 20 39V40V41C31.598 41 41 31.598 41 20H40ZM20 0V1C30.4934 1 39 9.50659 39 20H40H41C41 8.40202 31.598 -1 20 -1V0ZM20 0V-1C8.40202 -1 -1 8.40202 -1 20H0H1C1 9.50659 9.50659 1 20 1V0Z" fill="white" fill-opacity="0.25" mask="url(#path-1-inside-1_86_139)"/>
<path fill-rule="evenodd" clip-rule="evenodd" d="M12.5 15.625C12.5 15.4592 12.5658 15.3003 12.6831 15.1831C12.8003 15.0658 12.9592 15 13.125 15H26.875C27.0408 15 27.1997 15.0658 27.3169 15.1831C27.4342 15.3003 27.5 15.4592 27.5 15.625C27.5 15.7908 27.4342 15.9497 27.3169 16.0669C27.1997 16.1842 27.0408 16.25 26.875 16.25H13.125C12.9592 16.25 12.8003 16.1842 12.6831 16.0669C12.5658 15.9497 12.5 15.7908 12.5 15.625ZM12.5 20C12.5 19.8342 12.5658 19.6753 12.6831 19.5581C12.8003 19.4408 12.9592 19.375 13.125 19.375H26.875C27.0408 19.375 27.1997 19.4408 27.3169 19.5581C27.4342 19.6753 27.5 19.8342 27.5 20C27.5 20.1658 27.4342 20.3247 27.3169 20.4419C27.1997 20.5592 27.0408 20.625 26.875 20.625H13.125C12.9592 20.625 12.8003 20.5592 12.6831 20.4419C12.5658 20.3247 12.5 20.1658 12.5 20ZM12.5 24.375C12.5 24.2092 12.5658 24.0503 12.6831 23.9331C12.8003 23.8158 12.9592 23.75 13.125 23.75H26.875C27.0408 23.75 27.1997 23.8158 27.3169 23.9331C27.4342 24.0503 27.5 24.2092 27.5 24.375C27.5 24.5408 27.4342 24.6997 27.3169 24.8169C27.1997 24.9342 27.0408 25 26.875 25H13.125C12.9592 25 12.8003 24.9342 12.6831 24.8169C12.5658 24.6997 12.5 24.5408 12.5 24.375Z" fill="white"/>
</svg>
